<svg width="316" height="296" viewBox="0 0 316 296" fill="none" xmlns="http://www.w3.org/2000/svg">
<path d="M177.4 88.4C175.1 85.9 172.4 83.8 169.3 82.4C166.3 81 163.1 80.2 159.7 80.1H159.2C155.7 80.1 152.3 80.9 149.1 82.4C146.1 83.8 143.4 85.9 141.1 88.4C137.2 92.9 135 98.6 135 104.6C135 110.6 137.2 116.3 141.1 120.8C143.4 123.3 146.1 125.3 149.1 126.8C152.3 128.3 155.7 129 159.2 129.1H159.7V127.8H159.2C154.7 127.7 150.5 125.9 147.3 122.7C144.1 119.6 142.3 115.3 142.2 110.8V105.1C144.4 104.4 146.7 104.1 149.1 104.1C151.8 104.1 154.5 104.5 157 105.4C159.5 106.3 161.8 107.6 163.8 109.2C167.9 112.5 170.9 117.1 172.1 122.1C172.2 122.7 172.4 123.3 172.5 123.9C172.7 125.2 172.8 126.5 172.8 127.8C172.8 134.1 170.3 140.1 165.8 144.6C161.4 149 155.5 151.5 149.2 151.5H149.1C142.5 151.5 136.6 147.4 134.4 141.2C134.4 141 133.3 137.7 119.1 94.9V94.7L114.9 93.3C118.3 92.7 121.5 91.1 124 88.8C128 85.3 130.2 80.2 130.2 74.9C130.2 69.6 128 64.6 124 61C120.7 58 116.4 56.3 111.9 56.3L91 56.3V57.6H93.2L93.2 127.8H91V129.1H102.6V127.8H100.4V105.1C100.4 102 101.6 99.1 103.8 97C105.8 94.9 108.5 93.7 111.4 93.6C112.7 97.6 125.5 136.2 125.5 136.4C126 137.5 126.5 138.7 127.1 139.8L127.4 140.3C129.2 143.4 131.6 146.1 134.6 148.2C134.7 148.3 135.7 148.9 135.8 149.1C138.5 150.7 141.4 151.8 144.5 152.4C144.7 152.4 146.5 152.8 149.1 152.8C155.7 152.8 162 150.2 166.7 145.5C171.5 140.8 174.1 134.5 174.1 127.8C174.1 126.6 174 125.3 173.8 124.1C175.1 123.1 176.3 122 177.4 120.8C181.3 116.3 183.5 110.6 183.5 104.6C183.5 98.6 181.3 92.9 177.4 88.4ZM102.9 96.1C101.9 97.1 101 98.2 100.4 99.5V57.6L111.9 57.6C114.6 57.6 117.2 58.6 119.2 60.5C121.5 62.6 122.9 65.6 123 68.8V81.1C122.9 84.3 121.5 87.3 119.2 89.4C117.2 91.2 114.6 92.3 111.9 92.3C108.5 92.3 105.3 93.6 102.9 96.1ZM176.2 110.8C176.2 114.3 175 117.7 173 120.6C171.6 115.7 168.6 111.4 164.6 108.2C162.4 106.5 160 105.1 157.4 104.2C154.8 103.3 151.9 102.8 149.1 102.8C146.7 102.8 144.5 103.1 142.2 103.7V98.4C142.3 93.9 144.1 89.6 147.3 86.4C150.5 83.3 154.7 81.5 159.2 81.4C159.2 81.4 159.2 81.4 159.3 81.4C163.8 81.5 168 83.3 171.2 86.4C174.4 89.6 176.2 93.9 176.2 98.4V110.8ZM221.374 110.5C220.874 108.2 219.874 106.1 218.474 104.3C218.074 103.7 217.574 103.2 217.074 102.6C215.374 101 212.574 99.5 210.274 98.3C207.974 97.2 204.174 95.4 204.174 95.4C199.374 93.1 194.374 90.3 193.974 87.7C193.774 86.9 194.074 86.2 194.874 85.4C194.874 85.3 194.974 85.3 194.974 85.3C197.274 82.9 200.674 81.5 204.374 81.4C204.574 81.4 204.874 81.4 205.074 81.4C208.374 81.4 211.774 82.4 214.274 84.2C214.474 84.3 214.574 84.4 214.674 84.5C215.174 84.9 215.674 85.3 216.174 85.7C218.774 88.3 220.174 91.7 220.274 95.4V95.8H221.574V80.3H220.274V80.7C220.274 82.6 218.974 83.9 217.074 83.9C216.574 83.9 215.974 83.8 215.474 83.5C215.274 83.3 215.174 83.2 215.074 83.2C212.274 81.2 208.674 80.1 205.074 80.1C204.774 80.1 204.574 80.1 204.374 80.1C200.274 80.3 196.674 81.8 194.074 84.3C193.974 84.4 193.974 84.4 193.974 84.5C192.574 85.8 191.774 87.2 191.074 88.9C190.474 90.6 190.374 92.6 190.874 94.3C191.374 96.3 192.674 97.8 194.474 98.7H194.574C201.074 101.9 213.574 107.9 213.874 108.1C214.774 108.5 215.474 109.1 216.174 109.7C217.974 111.6 218.974 114 218.974 116.5C219.074 119.1 218.074 121.5 216.374 123.4L216.174 123.6C213.674 126 210.474 127.5 207.074 127.7C206.774 127.7 206.374 127.8 206.074 127.8C203.074 127.8 200.074 126.8 197.574 125C197.474 124.9 197.274 124.7 197.174 124.6C196.774 124.3 196.374 124 195.974 123.6C193.274 120.9 191.774 117.4 191.774 113.6V113.1H190.574V128.9H191.774V128.4C191.774 126.6 193.174 125.2 194.774 125.2C195.374 125.2 195.874 125.4 196.374 125.7C196.474 125.8 196.674 125.9 196.774 126H196.874C199.474 128 202.774 129 206.074 129C206.474 129 206.774 129 207.174 129C210.874 128.8 214.374 127.2 217.074 124.5C217.174 124.4 217.174 124.4 217.274 124.3C220.874 120.6 222.374 115.4 221.374 110.5ZM266.058 95.6C266.058 93.2 265.458 90.8 264.358 88.6C263.258 86.5 261.658 84.6 259.758 83.2C257.158 81.2 254.058 80.1 250.658 80.1H250.458C247.058 80.1 243.858 81.2 241.158 83.2C239.258 84.6 237.658 86.5 236.658 88.6C235.558 90.8 234.958 93.2 234.958 95.6C234.958 97.3 235.158 98.9 235.758 100.5C235.458 100.7 235.158 100.9 234.958 101.1C233.058 102.5 231.458 104.4 230.358 106.5C229.258 108.6 228.758 111 228.758 113.5C228.758 116 229.258 118.4 230.358 120.6C231.458 122.7 233.058 124.5 234.958 125.9C237.558 127.9 240.758 129 244.058 129H244.258C247.658 129 250.958 128 253.758 125.9C255.658 124.4 257.258 122.6 258.358 120.4C258.458 120.1 258.658 119.8 258.758 119.5V129H268.258V127.8H266.058V95.6ZM258.758 113.3C258.758 115.6 258.258 117.8 257.158 119.8C256.158 121.8 254.758 123.5 252.958 124.9C250.458 126.8 247.458 127.8 244.258 127.8C244.158 127.8 244.058 127.8 244.058 127.8C242.358 127.7 240.658 127.1 239.258 126.1C237.258 124.6 236.058 122.2 235.958 119.7C235.958 119.5 235.958 107.6 235.958 107.3C236.058 104.8 237.258 102.5 239.258 100.9C240.658 99.9 242.358 99.3 244.058 99.3H250.458C252.558 99.3 254.558 98.6 256.258 97.4C257.258 96.6 258.158 95.6 258.758 94.5V113.3ZM258.758 89.9C258.658 92.5 257.458 94.8 255.458 96.3C254.058 97.4 252.258 98 250.458 98H244.058C241.558 98 239.058 98.6 236.858 99.8C236.458 98.5 236.258 97.1 236.258 95.6C236.258 93.4 236.758 91.2 237.758 89.2C238.758 87.2 240.158 85.5 241.958 84.2C244.458 82.4 247.358 81.4 250.458 81.4C250.558 81.4 250.658 81.4 250.658 81.4C252.458 81.4 254.058 82 255.458 83C257.458 84.6 258.658 86.9 258.758 89.5V89.9Z" fill="#C2240C"/>
<path d="M114.4 133.3C114.3 133.3 90.6 133.3 87.9 133.3H87.5V134.6H89.7L89.7 204.8H87.5V206.1H99.1V204.8H96.9L96.9 170.6C97.8 172.9 99.2 175 101 176.8C104.5 180.3 109.2 182.3 114.1 182.3C114.2 182.3 114.3 182.2 114.4 182.2C117.9 182.2 121.3 181.4 124.5 180C127.6 178.5 130.2 176.5 132.5 174C136.4 169.5 138.6 163.7 138.6 157.8C138.6 151.8 136.4 146.1 132.5 141.6C130.2 139 127.6 137 124.5 135.6C121.3 134.1 118 133.3 114.5 133.3H114.4ZM114.1 181C109.6 181 105.3 179.2 102 176C98.8 172.8 97 168.5 96.9 163.9V134.6H114.1C114.2 134.6 114.3 134.6 114.4 134.6C118.9 134.6 123.1 136.4 126.3 139.6C129.5 142.8 131.3 147 131.4 151.5V164C131.3 168.5 129.5 172.7 126.3 175.9C123.1 179.1 118.9 180.9 114.4 181C114.4 181 114.2 181 114.1 181ZM183.101 172.6C183.101 170.2 182.501 167.8 181.401 165.6C180.301 163.5 178.701 161.6 176.801 160.2C174.201 158.2 171.101 157.1 167.701 157.1H167.501C164.101 157.1 160.901 158.2 158.201 160.2C156.301 161.6 154.701 163.5 153.701 165.6C152.601 167.8 152.001 170.2 152.001 172.6C152.001 174.3 152.201 175.9 152.801 177.5C152.501 177.7 152.201 177.9 152.001 178.1C150.101 179.5 148.501 181.4 147.401 183.5C146.301 185.6 145.801 188 145.801 190.5C145.801 193 146.301 195.4 147.401 197.6C148.501 199.7 150.101 201.5 152.001 202.9C154.601 204.9 157.801 206 161.101 206H161.301C164.701 206 168.001 205 170.801 202.9C172.701 201.4 174.301 199.6 175.401 197.4C175.501 197.1 175.701 196.8 175.801 196.5V206H185.301V204.8H183.101V172.6ZM175.801 190.3C175.801 192.6 175.301 194.8 174.201 196.8C173.201 198.8 171.801 200.5 170.001 201.9C167.501 203.8 164.501 204.8 161.301 204.8C161.201 204.8 161.101 204.8 161.101 204.8C159.401 204.7 157.701 204.1 156.301 203.1C154.301 201.6 153.101 199.2 153.001 196.7C153.001 196.5 153.001 184.6 153.001 184.3C153.101 181.8 154.301 179.5 156.301 177.9C157.701 176.9 159.401 176.3 161.101 176.3H167.501C169.601 176.3 171.601 175.6 173.301 174.4C174.301 173.6 175.201 172.6 175.801 171.5V190.3ZM175.801 166.9C175.701 169.5 174.501 171.8 172.501 173.3C171.101 174.4 169.301 175 167.501 175H161.101C158.601 175 156.101 175.6 153.901 176.8C153.501 175.5 153.301 174.1 153.301 172.6C153.301 170.4 153.801 168.2 154.801 166.2C155.801 164.2 157.201 162.5 159.001 161.2C161.501 159.4 164.401 158.4 167.501 158.4C167.601 158.4 167.701 158.4 167.701 158.4C169.501 158.4 171.101 159 172.501 160C174.501 161.6 175.701 163.9 175.801 166.5V166.9ZM223.983 165.6C222.883 163.5 221.283 161.6 219.383 160.2C216.783 158.2 213.583 157.1 210.283 157.1C210.283 157.1 210.183 157.1 210.083 157.1C207.083 157.1 204.283 157.9 201.783 159.5V157.1H192.383V158.4H194.583V204.8H192.383V206H203.983V204.8H201.783V178.9V161C204.183 159.3 207.083 158.4 210.083 158.4C210.183 158.4 210.283 158.4 210.283 158.4C211.983 158.4 213.683 159 215.083 160C217.083 161.6 218.283 163.9 218.383 166.5C218.383 166.5 218.383 166.6 218.383 166.7C218.383 166.8 218.383 166.8 218.383 166.9V173.3H225.583V172.6C225.583 170.2 225.083 167.8 223.983 165.6ZM274.413 204.8H271.913L254.113 175H249.713L273.513 157.1H264.813V158.4H265.313C267.113 158.4 267.213 158.8 267.213 159.5C267.213 159.9 267.013 160.3 266.913 160.4V160.5L242.413 178.8V132.9L232.813 137.3L233.313 138.4L235.213 137.6V204.8H233.013V206H244.613V204.8H242.413V180.4L247.613 176.6L264.513 204.8H262.713V206H274.413V204.8ZM308.827 187.5C308.327 185.2 307.327 183.1 305.927 181.3C305.527 180.7 305.027 180.2 304.527 179.6C302.827 178 300.027 176.5 297.727 175.3C295.427 174.2 291.627 172.4 291.627 172.4C286.827 170.1 281.827 167.3 281.427 164.7C281.227 163.9 281.527 163.2 282.327 162.4C282.327 162.3 282.427 162.3 282.427 162.3C284.727 159.9 288.127 158.5 291.827 158.4C292.027 158.4 292.327 158.4 292.527 158.4C295.827 158.4 299.227 159.4 301.727 161.2C301.927 161.3 302.027 161.4 302.127 161.5C302.627 161.9 303.127 162.3 303.627 162.7C306.227 165.3 307.627 168.7 307.727 172.4V172.8H309.027V157.3H307.727V157.7C307.727 159.6 306.427 160.9 304.527 160.9C304.027 160.9 303.427 160.8 302.927 160.5C302.727 160.3 302.627 160.2 302.527 160.2C299.727 158.2 296.127 157.1 292.527 157.1C292.227 157.1 292.027 157.1 291.827 157.1C287.727 157.3 284.127 158.8 281.527 161.3C281.427 161.4 281.427 161.4 281.427 161.5C280.027 162.8 279.227 164.2 278.527 165.9C277.927 167.6 277.827 169.6 278.327 171.3C278.827 173.3 280.127 174.8 281.927 175.7H282.027C288.527 178.9 301.027 184.9 301.327 185.1C302.227 185.5 302.927 186.1 303.627 186.7C305.427 188.6 306.427 191 306.427 193.5C306.527 196.1 305.527 198.5 303.827 200.4L303.627 200.6C301.127 203 297.927 204.5 294.527 204.7C294.227 204.7 293.827 204.8 293.527 204.8C290.527 204.8 287.527 203.8 285.027 202C284.927 201.9 284.727 201.7 284.627 201.6C284.227 201.3 283.827 201 283.427 200.6C280.727 197.9 279.227 194.4 279.227 190.6V190.1H278.027V205.9H279.227V205.4C279.227 203.6 280.627 202.2 282.227 202.2C282.827 202.2 283.327 202.4 283.827 202.7C283.927 202.8 284.127 202.9 284.227 203H284.327C286.927 205 290.227 206 293.527 206C293.927 206 294.227 206 294.627 206C298.327 205.8 301.827 204.2 304.527 201.5C304.627 201.4 304.627 201.4 304.727 201.3C308.327 197.6 309.827 192.4 308.827 187.5Z" fill="#C2240C"/>
<path d="M199.5 212L203.667 228.53L212.975 214.249L211.549 231.236L224.99 220.751L218.125 236.355L234.242 230.802L222.683 243.331L239.73 243.312L224.729 251.41L240.858 256.927L224.04 259.714L237.505 270.17L220.693 267.346L230.033 281.607L215.049 273.477L219.252 289.998L207.72 277.443L206.331 294.434L199.5 278.815L192.669 294.434L191.28 277.443L179.748 289.998L183.951 273.477L168.967 281.607L178.307 267.346L161.495 270.17L174.96 259.714L158.142 256.927L174.271 251.41L159.27 243.312L176.317 243.331L164.758 230.802L180.875 236.355L174.01 220.751L187.451 231.236L186.025 214.249L195.333 228.53L199.5 212Z" fill="#C2240C"/>
<path d="M213.608 82.0071C257.846 126.245 263.859 191.477 227.602 227.734C191.345 263.99 126.113 257.977 81.8756 213.74C37.6379 169.502 31.6251 104.27 67.8818 68.0133C104.139 31.7566 169.37 37.7694 213.608 82.0071Z" stroke="#C2240C" stroke-width="2"/>
</svg>
