<svg width="148" height="147" viewBox="0 0 148 147" fill="none" xmlns="http://www.w3.org/2000/svg">
<path d="M74 0L81.4298 29.4757L98.0278 4.00952L95.4843 34.3006L119.452 15.6036L107.211 43.4275L135.95 33.5258L115.338 55.8675L145.736 55.8341L118.986 70.2724L147.747 80.1109L117.759 85.0812L141.767 103.725L111.79 98.6892L128.444 124.119L101.726 109.622L109.22 139.081L88.6569 116.694L86.18 146.991L74 119.14L61.82 146.991L59.3431 116.694L38.7799 139.081L46.2744 109.622L19.5564 124.119L36.2103 98.6892L6.23277 103.725L30.2413 85.0812L0.252747 80.1109L29.0142 70.2724L2.26438 55.8341L32.662 55.8675L12.0497 33.5258L40.7894 43.4275L28.5483 15.6036L52.5157 34.3006L49.9722 4.00952L66.5702 29.4757L74 0Z" fill="#C2240C"/>
</svg>
