<svg width="22" height="22" viewBox="0 0 22 22" fill="none" xmlns="http://www.w3.org/2000/svg">
<path d="M11 0L12.1044 4.38152L14.5717 0.59601L14.1936 5.09873L17.7563 2.31945L15.9367 6.45544L20.2088 4.98357L17.1448 8.30462L21.6634 8.29966L17.6871 10.4459L21.9624 11.9084L17.5047 12.6472L21.0735 15.4186L16.6174 14.67L19.093 18.4501L15.1214 16.2951L16.2354 20.6742L13.1787 17.3464L12.8105 21.85L11 17.71L9.18946 21.85L8.82127 17.3464L5.76458 20.6742L6.87863 16.2951L2.90704 18.4501L5.38261 14.67L0.926494 15.4186L4.49532 12.6472L0.037571 11.9084L4.31292 10.4459L0.336597 8.29966L4.85516 8.30462L1.79117 4.98357L6.06329 6.45544L4.24366 2.31945L7.80639 5.09873L7.42831 0.59601L9.89557 4.38152L11 0Z" fill="#C2240C"/>
</svg>
