<svg width="348" height="348" viewBox="0 0 348 348" fill="none" xmlns="http://www.w3.org/2000/svg">
<path d="M264.5 249L268.667 265.531L277.975 251.249L276.549 268.237L289.99 257.751L283.125 273.355L299.242 267.802L287.683 280.332L304.73 280.313L289.729 288.41L305.858 293.928L289.04 296.715L302.505 307.171L285.693 304.346L295.033 318.608L280.049 310.478L284.252 326.999L272.72 314.444L271.331 331.434L264.5 315.815L257.669 331.434L256.28 314.444L244.748 326.999L248.951 310.478L233.967 318.608L243.307 304.346L226.495 307.171L239.96 296.715L223.142 293.928L239.271 288.41L224.27 280.313L241.317 280.332L229.758 267.802L245.875 273.355L239.01 257.751L252.451 268.237L251.025 251.249L260.333 265.531L264.5 249Z" fill="#C2240C"/>
<path d="M242.691 105.09C271.395 133.795 289.601 167.498 295.869 198.748C302.138 230.005 296.449 258.683 277.566 277.566C258.682 296.45 230.005 302.138 198.747 295.869C167.498 289.602 133.794 271.396 105.09 242.691C76.3852 213.987 58.179 180.283 51.9117 149.034C45.6428 117.776 51.3311 89.0988 70.2147 70.2152C89.0984 51.3316 117.776 45.6433 149.033 51.9122C180.282 58.1794 213.986 76.3856 242.691 105.09Z" stroke="#C2240C" stroke-width="2"/>
<path d="M128.7 89.3598V85.9998H166.92V89.3598C165.893 88.6598 164.493 88.1231 162.72 87.7498C160.947 87.3764 159.173 87.1198 157.4 86.9798C155.627 86.8398 153.993 86.7698 152.5 86.7698C151.053 86.7231 150.073 86.6998 149.56 86.6998V130.1C149.653 131.22 149.887 132.2 150.26 133.04C150.633 133.88 151.45 134.3 152.71 134.3V135H142.91V134.3C143.703 134.3 144.31 134.136 144.73 133.81C145.15 133.436 145.453 132.97 145.64 132.41C145.873 131.85 145.99 131.22 145.99 130.52C146.037 129.773 146.06 129.026 146.06 128.28V86.6998C145.593 86.6998 144.613 86.7231 143.12 86.7698C141.627 86.7698 139.993 86.8398 138.22 86.9798C136.447 87.1198 134.673 87.3764 132.9 87.7498C131.173 88.1231 129.773 88.6598 128.7 89.3598ZM169.716 135V134.3C170.509 134.3 171.116 134.136 171.536 133.81C171.956 133.436 172.259 132.97 172.446 132.41C172.679 131.85 172.796 131.22 172.796 130.52C172.842 129.773 172.866 129.026 172.866 128.28V91.2498C172.866 90.6431 172.819 90.0831 172.726 89.5698C172.632 89.0098 172.469 88.5198 172.236 88.0998C172.049 87.6798 171.746 87.3531 171.326 87.1198C170.906 86.8398 170.369 86.6998 169.716 86.6998V85.9998H179.516V86.6998C178.722 86.6998 178.116 86.8864 177.696 87.2598C177.276 87.5864 176.949 88.0298 176.716 88.5898C176.529 89.1498 176.412 89.8031 176.366 90.5498C176.366 91.2498 176.366 91.9731 176.366 92.7198V109.66H201.706V91.2498C201.706 90.6431 201.659 90.0831 201.566 89.5698C201.472 89.0098 201.309 88.5198 201.076 88.0998C200.889 87.6798 200.586 87.3531 200.166 87.1198C199.746 86.8398 199.209 86.6998 198.556 86.6998V85.9998H208.356V86.6998C207.562 86.6998 206.956 86.8864 206.536 87.2598C206.116 87.5864 205.789 88.0298 205.556 88.5898C205.369 89.1498 205.252 89.8031 205.206 90.5498C205.206 91.2498 205.206 91.9731 205.206 92.7198V129.4C205.252 130.706 205.439 131.85 205.766 132.83C206.139 133.81 207.002 134.3 208.356 134.3V135H198.556V134.3C199.349 134.3 199.956 134.136 200.376 133.81C200.796 133.436 201.099 132.97 201.286 132.41C201.519 131.85 201.636 131.22 201.636 130.52C201.682 129.773 201.706 129.026 201.706 128.28V110.36H176.366V129.4C176.412 130.706 176.599 131.85 176.926 132.83C177.299 133.81 178.162 134.3 179.516 134.3V135H169.716ZM214.291 128.28V91.2498C214.291 90.6431 214.245 90.0831 214.151 89.5698C214.058 89.0098 213.895 88.5198 213.661 88.0998C213.475 87.6798 213.171 87.3531 212.751 87.1198C212.331 86.8398 211.795 86.6998 211.141 86.6998V85.9998H238.651V92.7898L237.951 92.7198C237.951 91.9731 237.905 91.2498 237.811 90.5498C237.765 89.8031 237.531 89.1498 237.111 88.5898C236.738 88.0298 236.108 87.5864 235.221 87.2598C234.381 86.8864 233.168 86.6998 231.581 86.6998H217.791V107.49H226.051C226.798 107.49 227.521 107.49 228.221 107.49C228.968 107.443 229.621 107.326 230.181 107.14C230.741 106.906 231.185 106.58 231.511 106.16C231.885 105.74 232.071 105.133 232.071 104.34H232.771V111.34H232.071C232.071 110.546 231.885 109.94 231.511 109.52C231.185 109.1 230.741 108.796 230.181 108.61C229.621 108.376 228.968 108.26 228.221 108.26C227.521 108.213 226.798 108.19 226.051 108.19H217.791V134.3H231.581C233.168 134.3 234.381 134.136 235.221 133.81C236.108 133.436 236.738 132.97 237.111 132.41C237.531 131.85 237.765 131.22 237.811 130.52C237.905 129.773 237.951 129.026 237.951 128.28L238.651 128.21V135H211.141V134.3C211.935 134.3 212.541 134.136 212.961 133.81C213.381 133.436 213.685 132.97 213.871 132.41C214.105 131.85 214.221 131.22 214.221 130.52C214.268 129.773 214.291 129.026 214.291 128.28ZM128.7 212V211.3C129.493 211.3 130.1 211.136 130.52 210.81C130.94 210.436 131.243 209.97 131.43 209.41C131.663 208.85 131.78 208.22 131.78 207.52C131.827 206.773 131.85 206.026 131.85 205.28V168.25C131.85 167.643 131.803 167.083 131.71 166.57C131.617 166.01 131.453 165.52 131.22 165.1C131.033 164.68 130.73 164.353 130.31 164.12C129.89 163.84 129.353 163.7 128.7 163.7V163H143.4C145.64 163 147.833 163.186 149.98 163.56C152.127 163.933 154.04 164.563 155.72 165.45C157.447 166.336 158.823 167.503 159.85 168.95C160.923 170.396 161.46 172.17 161.46 174.27C161.46 175.95 161.133 177.42 160.48 178.68C159.827 179.94 158.94 181.036 157.82 181.97C156.747 182.856 155.463 183.58 153.97 184.14C152.523 184.7 150.96 185.12 149.28 185.4C151.24 185.633 153.107 186.053 154.88 186.66C156.653 187.266 158.193 188.106 159.5 189.18C160.853 190.206 161.903 191.49 162.65 193.03C163.443 194.57 163.84 196.413 163.84 198.56C163.84 201.08 163.303 203.203 162.23 204.93C161.157 206.61 159.733 207.986 157.96 209.06C156.187 210.086 154.157 210.833 151.87 211.3C149.63 211.766 147.32 212 144.94 212H128.7ZM135.35 185.82V211.3H143.54C145.547 211.3 147.53 211.136 149.49 210.81C151.497 210.436 153.293 209.783 154.88 208.85C156.513 207.87 157.82 206.563 158.8 204.93C159.827 203.25 160.34 201.126 160.34 198.56C160.34 195.946 159.827 193.823 158.8 192.19C157.82 190.556 156.513 189.273 154.88 188.34C153.293 187.36 151.497 186.706 149.49 186.38C147.53 186.006 145.547 185.82 143.54 185.82H135.35ZM135.35 163.7V185.12H142C143.913 185.12 145.803 184.98 147.67 184.7C149.583 184.373 151.287 183.813 152.78 183.02C154.32 182.226 155.557 181.13 156.49 179.73C157.47 178.33 157.96 176.533 157.96 174.34C157.96 172.146 157.47 170.373 156.49 169.02C155.557 167.62 154.32 166.523 152.78 165.73C151.287 164.936 149.583 164.4 147.67 164.12C145.803 163.84 143.913 163.7 142 163.7H135.35ZM166.639 163H176.439V163.7C175.086 163.7 174.223 164.19 173.849 165.17C173.523 166.15 173.336 167.293 173.289 168.6V198.63C173.289 200.403 173.639 202.083 174.339 203.67C175.086 205.21 176.089 206.563 177.349 207.73C178.609 208.85 180.079 209.736 181.759 210.39C183.439 211.043 185.213 211.37 187.079 211.37C188.433 211.37 189.926 211.066 191.559 210.46C193.239 209.853 194.803 208.99 196.249 207.87C197.696 206.75 198.909 205.42 199.889 203.88C200.869 202.293 201.359 200.543 201.359 198.63H201.289V167.27C201.196 166.29 200.939 165.45 200.519 164.75C200.099 164.05 199.329 163.7 198.209 163.7V163H205.209V163.7C203.856 163.7 202.993 164.19 202.619 165.17C202.293 166.15 202.106 167.293 202.059 168.6V198.63C202.059 200.31 201.733 201.966 201.079 203.6C200.473 205.186 199.539 206.61 198.279 207.87C197.019 209.13 195.456 210.156 193.589 210.95C191.723 211.696 189.553 212.07 187.079 212.07C185.399 212.07 183.719 211.86 182.039 211.44C180.359 211.02 178.773 210.413 177.279 209.62C175.833 208.78 174.549 207.823 173.429 206.75C172.309 205.63 171.446 204.416 170.839 203.11C170.466 202.41 170.209 201.686 170.069 200.94C169.976 200.193 169.883 199.423 169.789 198.63V169.72C169.789 168.973 169.766 168.25 169.719 167.55C169.719 166.803 169.603 166.15 169.369 165.59C169.183 165.03 168.879 164.586 168.459 164.26C168.039 163.886 167.433 163.7 166.639 163.7V163ZM207.997 206.54C208.09 206.213 208.254 205.653 208.487 204.86C208.72 204.02 208.954 203.156 209.187 202.27C209.467 201.243 209.77 200.123 210.097 198.91C210.097 200.636 210.494 202.27 211.287 203.81C212.08 205.303 213.13 206.633 214.437 207.8C215.79 208.966 217.33 209.9 219.057 210.6C220.83 211.253 222.697 211.58 224.657 211.58C226.244 211.58 227.76 211.253 229.207 210.6C230.7 209.946 232.007 209.106 233.127 208.08C234.294 207.053 235.204 205.91 235.857 204.65C236.557 203.343 236.907 202.036 236.907 200.73C236.907 199.05 236.51 197.58 235.717 196.32C234.97 195.06 233.967 193.916 232.707 192.89C231.447 191.863 229.977 190.906 228.297 190.02C226.664 189.133 224.96 188.246 223.187 187.36C221.6 186.566 220.037 185.726 218.497 184.84C217.004 183.953 215.674 182.95 214.507 181.83C213.34 180.663 212.407 179.356 211.707 177.91C211.007 176.463 210.657 174.806 210.657 172.94L211.357 172.73L210.657 172.94C210.657 171.12 211.1 169.58 211.987 168.32C212.92 167.013 214.064 165.963 215.417 165.17C216.77 164.33 218.264 163.723 219.897 163.35C221.577 162.976 223.14 162.79 224.587 162.79C225.94 162.79 227.084 162.86 228.017 163C228.95 163.14 229.837 163.28 230.677 163.42C231.517 163.56 232.38 163.7 233.267 163.84C234.154 163.933 235.227 163.98 236.487 163.98C236.394 164.26 236.254 164.75 236.067 165.45C235.927 166.15 235.764 166.85 235.577 167.55C235.344 168.39 235.11 169.276 234.877 170.21C234.317 168.576 233.547 167.316 232.567 166.43C231.587 165.496 230.584 164.82 229.557 164.4C228.577 163.933 227.667 163.653 226.827 163.56C225.987 163.466 225.38 163.42 225.007 163.42C221.507 163.56 218.684 164.4 216.537 165.94C214.437 167.433 213.387 169.486 213.387 172.1C213.387 173.686 213.737 175.11 214.437 176.37C215.184 177.63 216.164 178.773 217.377 179.8C218.637 180.78 220.06 181.713 221.647 182.6C223.234 183.486 224.867 184.35 226.547 185.19C228.18 185.983 229.79 186.846 231.377 187.78C232.964 188.666 234.364 189.693 235.577 190.86C236.79 191.98 237.77 193.286 238.517 194.78C239.264 196.226 239.637 197.93 239.637 199.89C239.637 201.71 239.17 203.39 238.237 204.93C237.35 206.423 236.184 207.73 234.737 208.85C233.29 209.923 231.68 210.763 229.907 211.37C228.134 211.976 226.384 212.28 224.657 212.28C222.557 212.28 220.574 212.093 218.707 211.72C216.887 211.3 215.254 210.81 213.807 210.25C212.36 209.643 211.124 209.013 210.097 208.36C209.117 207.706 208.417 207.1 207.997 206.54Z" fill="#C2240C"/>
<path d="M128 143.75H254.725V147.25H128V143.75ZM128 220.75H241.737V224.25H128V220.75Z" fill="#C2240C"/>
</svg>
